<svg xmlns="http://www.w3.org/2000/svg" width="1200" height="110" viewBox="0 0 1200 110" role="img" aria-label="Build. Ship. Learn. Repeat.">
  <style>
    .cg { animation: shimmer 4s ease-in-out infinite; }
    @keyframes shimmer { 0%,100% { opacity: .9; } 50% { opacity: .3; } }
  </style>
  <rect class="cg" x="2" y="92" width="16" height="16" rx="3" fill="#b9a6ff" style="animation-delay:1.5s"/><rect class="cg" x="22" y="92" width="16" height="16" rx="3" fill="#1e1733" style="animation-delay:1.76s"/><rect class="cg" x="22" y="72" width="16" height="16" rx="3" fill="#b9a6ff" style="animation-delay:0.76s"/><rect class="cg" x="22" y="52" width="16" height="16" rx="3" fill="#b9a6ff" style="animation-delay:1.53s"/><rect class="cg" x="42" y="92" width="16" height="16" rx="3" fill="#2f2552" style="animation-delay:3.18s"/><rect class="cg" x="42" y="72" width="16" height="16" rx="3" fill="#7a63cf" style="animation-delay:2.71s"/><rect class="cg" x="62" y="92" width="16" height="16" rx="3" fill="#7a63cf" style="animation-delay:2.25s"/><rect class="cg" x="62" y="72" width="16" height="16" rx="3" fill="#b9a6ff" style="animation-delay:0.51s"/><rect class="cg" x="62" y="52" width="16" height="16" rx="3" fill="#7a63cf" style="animation-delay:2.98s"/><rect class="cg" x="82" y="92" width="16" height="16" rx="3" fill="#1e1733" style="animation-delay:1.05s"/><rect class="cg" x="102" y="92" width="16" height="16" rx="3" fill="#4b3b85" style="animation-delay:2.57s"/><rect class="cg" x="122" y="92" width="16" height="16" rx="3" fill="#b9a6ff" style="animation-delay:1.0s"/><rect class="cg" x="122" y="72" width="16" height="16" rx="3" fill="#1e1733" style="animation-delay:2.49s"/><rect class="cg" x="142" y="92" width="16" height="16" rx="3" fill="#4b3b85" style="animation-delay:2.71s"/><rect class="cg" x="162" y="92" width="16" height="16" rx="3" fill="#b9a6ff" style="animation-delay:0.49s"/><rect class="cg" x="182" y="92" width="16" height="16" rx="3" fill="#b9a6ff" style="animation-delay:1.55s"/><rect class="cg" x="202" y="92" width="16" height="16" rx="3" fill="#7a63cf" style="animation-delay:2.2s"/><rect class="cg" x="202" y="72" width="16" height="16" rx="3" fill="#4b3b85" style="animation-delay:0.37s"/><rect class="cg" x="222" y="92" width="16" height="16" rx="3" fill="#7a63cf" style="animation-delay:2.49s"/><rect class="cg" x="222" y="72" width="16" height="16" rx="3" fill="#7a63cf" style="animation-delay:3.07s"/><rect class="cg" x="222" y="52" width="16" height="16" rx="3" fill="#1e1733" style="animation-delay:0.25s"/><rect class="cg" x="222" y="32" width="16" height="16" rx="3" fill="#b9a6ff" style="animation-delay:0.94s"/><rect class="cg" x="242" y="92" width="16" height="16" rx="3" fill="#2f2552" style="animation-delay:2.8s"/><rect class="cg" x="262" y="92" width="16" height="16" rx="3" fill="#1e1733" style="animation-delay:2.94s"/><rect class="cg" x="262" y="72" width="16" height="16" rx="3" fill="#1e1733" style="animation-delay:3.63s"/><rect class="cg" x="262" y="52" width="16" height="16" rx="3" fill="#1e1733" style="animation-delay:2.34s"/><rect class="cg" x="262" y="32" width="16" height="16" rx="3" fill="#b9a6ff" style="animation-delay:2.46s"/><rect class="cg" x="282" y="92" width="16" height="16" rx="3" fill="#4b3b85" style="animation-delay:3.1s"/><rect class="cg" x="282" y="72" width="16" height="16" rx="3" fill="#b9a6ff" style="animation-delay:3.29s"/><rect class="cg" x="282" y="52" width="16" height="16" rx="3" fill="#2f2552" style="animation-delay:1.19s"/><rect class="cg" x="302" y="92" width="16" height="16" rx="3" fill="#4b3b85" style="animation-delay:3.75s"/><rect class="cg" x="302" y="72" width="16" height="16" rx="3" fill="#4b3b85" style="animation-delay:3.86s"/><rect class="cg" x="302" y="52" width="16" height="16" rx="3" fill="#7a63cf" style="animation-delay:3.24s"/><rect class="cg" x="302" y="32" width="16" height="16" rx="3" fill="#4b3b85" style="animation-delay:2.86s"/><rect class="cg" x="322" y="92" width="16" height="16" rx="3" fill="#b9a6ff" style="animation-delay:2.46s"/><rect class="cg" x="342" y="92" width="16" height="16" rx="3" fill="#1e1733" style="animation-delay:1.75s"/><rect class="cg" x="342" y="72" width="16" height="16" rx="3" fill="#7a63cf" style="animation-delay:0.92s"/><rect class="cg" x="362" y="92" width="16" height="16" rx="3" fill="#1e1733" style="animation-delay:0.93s"/><rect class="cg" x="362" y="72" width="16" height="16" rx="3" fill="#b9a6ff" style="animation-delay:0.73s"/><rect class="cg" x="362" y="52" width="16" height="16" rx="3" fill="#4b3b85" style="animation-delay:3.0s"/><rect class="cg" x="362" y="32" width="16" height="16" rx="3" fill="#b9a6ff" style="animation-delay:1.36s"/><rect class="cg" x="382" y="92" width="16" height="16" rx="3" fill="#2f2552" style="animation-delay:0.28s"/><rect class="cg" x="382" y="72" width="16" height="16" rx="3" fill="#b9a6ff" style="animation-delay:2.55s"/><rect class="cg" x="402" y="92" width="16" height="16" rx="3" fill="#7a63cf" style="animation-delay:0.11s"/><rect class="cg" x="402" y="72" width="16" height="16" rx="3" fill="#4b3b85" style="animation-delay:2.27s"/><rect class="cg" x="422" y="92" width="16" height="16" rx="3" fill="#7a63cf" style="animation-delay:1.57s"/><rect class="cg" x="422" y="72" width="16" height="16" rx="3" fill="#4b3b85" style="animation-delay:0.2s"/><rect class="cg" x="422" y="52" width="16" height="16" rx="3" fill="#1e1733" style="animation-delay:3.12s"/><rect class="cg" x="442" y="92" width="16" height="16" rx="3" fill="#b9a6ff" style="animation-delay:1.06s"/><rect class="cg" x="442" y="72" width="16" height="16" rx="3" fill="#7a63cf" style="animation-delay:1.13s"/><rect class="cg" x="442" y="52" width="16" height="16" rx="3" fill="#7a63cf" style="animation-delay:0.74s"/><rect class="cg" x="462" y="92" width="16" height="16" rx="3" fill="#1e1733" style="animation-delay:3.77s"/><rect class="cg" x="462" y="72" width="16" height="16" rx="3" fill="#4b3b85" style="animation-delay:2.69s"/><rect class="cg" x="462" y="52" width="16" height="16" rx="3" fill="#7a63cf" style="animation-delay:2.39s"/><rect class="cg" x="462" y="32" width="16" height="16" rx="3" fill="#b9a6ff" style="animation-delay:0.14s"/><rect class="cg" x="482" y="92" width="16" height="16" rx="3" fill="#7a63cf" style="animation-delay:2.55s"/><rect class="cg" x="502" y="92" width="16" height="16" rx="3" fill="#2f2552" style="animation-delay:1.92s"/><rect class="cg" x="502" y="72" width="16" height="16" rx="3" fill="#4b3b85" style="animation-delay:1.19s"/><rect class="cg" x="502" y="52" width="16" height="16" rx="3" fill="#2f2552" style="animation-delay:3.54s"/><rect class="cg" x="522" y="92" width="16" height="16" rx="3" fill="#4b3b85" style="animation-delay:3.38s"/><rect class="cg" x="522" y="72" width="16" height="16" rx="3" fill="#b9a6ff" style="animation-delay:1.86s"/><rect class="cg" x="522" y="52" width="16" height="16" rx="3" fill="#b9a6ff" style="animation-delay:2.11s"/><rect class="cg" x="542" y="92" width="16" height="16" rx="3" fill="#1e1733" style="animation-delay:0.58s"/><rect class="cg" x="542" y="72" width="16" height="16" rx="3" fill="#1e1733" style="animation-delay:3.96s"/><rect class="cg" x="562" y="92" width="16" height="16" rx="3" fill="#7a63cf" style="animation-delay:1.37s"/><rect class="cg" x="562" y="72" width="16" height="16" rx="3" fill="#b9a6ff" style="animation-delay:3.74s"/><rect class="cg" x="562" y="52" width="16" height="16" rx="3" fill="#2f2552" style="animation-delay:1.48s"/><rect class="cg" x="582" y="92" width="16" height="16" rx="3" fill="#7a63cf" style="animation-delay:3.64s"/><rect class="cg" x="602" y="92" width="16" height="16" rx="3" fill="#1e1733" style="animation-delay:1.98s"/><rect class="cg" x="602" y="72" width="16" height="16" rx="3" fill="#1e1733" style="animation-delay:2.52s"/><rect class="cg" x="622" y="92" width="16" height="16" rx="3" fill="#1e1733" style="animation-delay:0.86s"/><rect class="cg" x="622" y="72" width="16" height="16" rx="3" fill="#2f2552" style="animation-delay:0.77s"/><rect class="cg" x="622" y="52" width="16" height="16" rx="3" fill="#7a63cf" style="animation-delay:2.34s"/><rect class="cg" x="642" y="92" width="16" height="16" rx="3" fill="#1e1733" style="animation-delay:3.49s"/><rect class="cg" x="642" y="72" width="16" height="16" rx="3" fill="#1e1733" style="animation-delay:3.23s"/><rect class="cg" x="662" y="92" width="16" height="16" rx="3" fill="#2f2552" style="animation-delay:2.28s"/><rect class="cg" x="682" y="92" width="16" height="16" rx="3" fill="#4b3b85" style="animation-delay:2.25s"/><rect class="cg" x="702" y="92" width="16" height="16" rx="3" fill="#b9a6ff" style="animation-delay:2.49s"/><rect class="cg" x="702" y="72" width="16" height="16" rx="3" fill="#2f2552" style="animation-delay:0.27s"/><rect class="cg" x="722" y="92" width="16" height="16" rx="3" fill="#4b3b85" style="animation-delay:3.33s"/><rect class="cg" x="722" y="72" width="16" height="16" rx="3" fill="#2f2552" style="animation-delay:1.35s"/><rect class="cg" x="722" y="52" width="16" height="16" rx="3" fill="#b9a6ff" style="animation-delay:2.15s"/><rect class="cg" x="742" y="92" width="16" height="16" rx="3" fill="#4b3b85" style="animation-delay:2.16s"/><rect class="cg" x="742" y="72" width="16" height="16" rx="3" fill="#7a63cf" style="animation-delay:1.03s"/><rect class="cg" x="762" y="92" width="16" height="16" rx="3" fill="#7a63cf" style="animation-delay:1.14s"/><rect class="cg" x="782" y="92" width="16" height="16" rx="3" fill="#1e1733" style="animation-delay:3.8s"/><rect class="cg" x="802" y="92" width="16" height="16" rx="3" fill="#4b3b85" style="animation-delay:2.95s"/><rect class="cg" x="802" y="72" width="16" height="16" rx="3" fill="#1e1733" style="animation-delay:3.51s"/><rect class="cg" x="802" y="52" width="16" height="16" rx="3" fill="#2f2552" style="animation-delay:0.91s"/><rect class="cg" x="802" y="32" width="16" height="16" rx="3" fill="#2f2552" style="animation-delay:0.39s"/><rect class="cg" x="822" y="92" width="16" height="16" rx="3" fill="#4b3b85" style="animation-delay:2.88s"/><rect class="cg" x="842" y="92" width="16" height="16" rx="3" fill="#1e1733" style="animation-delay:0.67s"/><rect class="cg" x="842" y="72" width="16" height="16" rx="3" fill="#4b3b85" style="animation-delay:3.86s"/><rect class="cg" x="862" y="92" width="16" height="16" rx="3" fill="#4b3b85" style="animation-delay:1.72s"/><rect class="cg" x="862" y="72" width="16" height="16" rx="3" fill="#7a63cf" style="animation-delay:2.77s"/><rect class="cg" x="882" y="92" width="16" height="16" rx="3" fill="#4b3b85" style="animation-delay:1.99s"/><rect class="cg" x="902" y="92" width="16" height="16" rx="3" fill="#4b3b85" style="animation-delay:3.62s"/><rect class="cg" x="902" y="72" width="16" height="16" rx="3" fill="#7a63cf" style="animation-delay:0.47s"/><rect class="cg" x="902" y="52" width="16" height="16" rx="3" fill="#b9a6ff" style="animation-delay:3.47s"/><rect class="cg" x="902" y="32" width="16" height="16" rx="3" fill="#b9a6ff" style="animation-delay:1.03s"/><rect class="cg" x="922" y="92" width="16" height="16" rx="3" fill="#4b3b85" style="animation-delay:2.03s"/><rect class="cg" x="942" y="92" width="16" height="16" rx="3" fill="#7a63cf" style="animation-delay:3.41s"/><rect class="cg" x="942" y="72" width="16" height="16" rx="3" fill="#7a63cf" style="animation-delay:0.52s"/><rect class="cg" x="962" y="92" width="16" height="16" rx="3" fill="#4b3b85" style="animation-delay:1.75s"/><rect class="cg" x="962" y="72" width="16" height="16" rx="3" fill="#b9a6ff" style="animation-delay:0.53s"/><rect class="cg" x="962" y="52" width="16" height="16" rx="3" fill="#4b3b85" style="animation-delay:1.47s"/><rect class="cg" x="962" y="32" width="16" height="16" rx="3" fill="#1e1733" style="animation-delay:2.56s"/><rect class="cg" x="982" y="92" width="16" height="16" rx="3" fill="#4b3b85" style="animation-delay:1.94s"/><rect class="cg" x="982" y="72" width="16" height="16" rx="3" fill="#1e1733" style="animation-delay:1.07s"/><rect class="cg" x="982" y="52" width="16" height="16" rx="3" fill="#b9a6ff" style="animation-delay:0.57s"/><rect class="cg" x="1002" y="92" width="16" height="16" rx="3" fill="#4b3b85" style="animation-delay:3.09s"/><rect class="cg" x="1002" y="72" width="16" height="16" rx="3" fill="#2f2552" style="animation-delay:3.43s"/><rect class="cg" x="1022" y="92" width="16" height="16" rx="3" fill="#7a63cf" style="animation-delay:2.98s"/><rect class="cg" x="1022" y="72" width="16" height="16" rx="3" fill="#2f2552" style="animation-delay:3.32s"/><rect class="cg" x="1042" y="92" width="16" height="16" rx="3" fill="#2f2552" style="animation-delay:1.39s"/><rect class="cg" x="1042" y="72" width="16" height="16" rx="3" fill="#4b3b85" style="animation-delay:2.14s"/><rect class="cg" x="1062" y="92" width="16" height="16" rx="3" fill="#4b3b85" style="animation-delay:1.8s"/><rect class="cg" x="1082" y="92" width="16" height="16" rx="3" fill="#b9a6ff" style="animation-delay:1.34s"/><rect class="cg" x="1102" y="92" width="16" height="16" rx="3" fill="#7a63cf" style="animation-delay:2.34s"/><rect class="cg" x="1102" y="72" width="16" height="16" rx="3" fill="#2f2552" style="animation-delay:0.51s"/><rect class="cg" x="1102" y="52" width="16" height="16" rx="3" fill="#2f2552" style="animation-delay:3.88s"/><rect class="cg" x="1102" y="32" width="16" height="16" rx="3" fill="#4b3b85" style="animation-delay:3.5s"/><rect class="cg" x="1122" y="92" width="16" height="16" rx="3" fill="#4b3b85" style="animation-delay:2.72s"/><rect class="cg" x="1142" y="92" width="16" height="16" rx="3" fill="#7a63cf" style="animation-delay:2.63s"/><rect class="cg" x="1142" y="72" width="16" height="16" rx="3" fill="#1e1733" style="animation-delay:1.03s"/><rect class="cg" x="1162" y="92" width="16" height="16" rx="3" fill="#4b3b85" style="animation-delay:0.1s"/><rect class="cg" x="1162" y="72" width="16" height="16" rx="3" fill="#b9a6ff" style="animation-delay:1.28s"/><rect class="cg" x="1182" y="92" width="16" height="16" rx="3" fill="#4b3b85" style="animation-delay:2.87s"/><rect class="cg" x="1202" y="92" width="16" height="16" rx="3" fill="#2f2552" style="animation-delay:0.36s"/><rect class="cg" x="1202" y="72" width="16" height="16" rx="3" fill="#b9a6ff" style="animation-delay:0.84s"/><rect class="cg" x="1202" y="52" width="16" height="16" rx="3" fill="#7a63cf" style="animation-delay:0.76s"/><rect class="cg" x="1202" y="32" width="16" height="16" rx="3" fill="#b9a6ff" style="animation-delay:1.49s"/>
  <rect x="440" y="10" width="320" height="40" rx="20" fill="#0d0a16" stroke="#2c2347"/>
  <text x="600" y="36" text-anchor="middle" font-family="'JetBrains Mono', 'Cascadia Code', Consolas, Menlo, 'Courier New', monospace" font-size="16" fill="#f4f1ff">build <tspan fill="#b9a6ff">·</tspan> ship <tspan fill="#b9a6ff">·</tspan> learn <tspan fill="#b9a6ff">·</tspan> repeat</text>
</svg>
